<?xml version="1.0" encoding="utf-8"?>
<!-- Generator: Adobe Illustrator 19.0.0, SVG Export Plug-In . SVG Version: 6.00 Build 0)  -->
<svg version="1.1" id="Layer_1" xmlns="http://www.w3.org/2000/svg" xmlns:xlink="http://www.w3.org/1999/xlink" x="0px" y="0px"
	 viewBox="0 0 500 500" style="enable-background:new 0 0 500 500;" xml:space="preserve">
<style type="text/css">
	.st0{fill:#231F20;}
	.st1{fill:#E31837;}
</style>
<g id="XMLID_1_">
	<path id="XMLID_3_" class="st0" d="M163.8,299.7c-0.4-0.2-1.1-0.6-2.3-0.6c-1.8,0-3,1.3-3,3.5c0,2.1,1.3,3.5,3,3.5
		c1.3,0,2.1-0.5,2.3-0.6l0.1,2.2c-0.5,0.1-1.4,0.4-2.9,0.4c-3.1,0-5.3-2.2-5.3-5.5c0-3.9,2.8-5.4,5.2-5.4c1.7,0,2.6,0.4,3,0.5
		L163.8,299.7z"/>
	<path id="XMLID_6_" class="st0" d="M174.8,305.5h-3.6l-0.8,2.4h-2.6l3.8-10.6h3l3.7,10.6h-2.8L174.8,305.5z M173.1,299.3
		L173.1,299.3l-1.4,4.4h2.6L173.1,299.3z"/>
	<path id="XMLID_9_" class="st0" d="M182.8,297.3h4.1c2.6,0,5.1,1.4,5.1,5.4c0,3.7-2.6,5.2-5.5,5.2h-3.7V297.3z M185.5,306h0.9
		c2,0,2.8-1.4,2.8-3.3c0-2.2-0.9-3.5-3-3.5h-0.7L185.5,306z"/>
	<polygon id="XMLID_10_" class="st0" points="196.7,297.3 203.3,297.3 203.3,299.1 199.3,299.1 199.3,301.5 203.1,301.5 
		203.1,303.3 199.3,303.3 199.3,306 203.5,306 203.5,307.8 196.7,307.8 	"/>
	<polygon id="XMLID_11_" class="st0" points="208.4,297.3 211.6,297.3 214.9,304.6 215,304.6 215,297.3 217.3,297.3 217.3,307.8 
		214.2,307.8 210.8,300.2 210.8,300.2 210.8,307.8 208.4,307.8 	"/>
	<path id="XMLID_12_" class="st0" d="M230.5,299.7c-0.4-0.2-1.1-0.6-2.3-0.6c-1.8,0-3,1.3-3,3.5c0,2.1,1.3,3.5,3,3.5
		c1.3,0,2.1-0.5,2.3-0.6l0.1,2.2c-0.5,0.1-1.4,0.4-2.9,0.4c-3.1,0-5.3-2.2-5.3-5.5c0-3.9,2.8-5.4,5.2-5.4c1.7,0,2.6,0.4,3,0.5
		L230.5,299.7z"/>
	<polygon id="XMLID_13_" class="st0" points="235.1,297.3 241.8,297.3 241.8,299.1 237.7,299.1 237.7,301.5 241.6,301.5 
		241.6,303.3 237.7,303.3 237.7,306 242,306 242,307.8 235.1,307.8 	"/>
	<path id="XMLID_16_" class="st0" d="M254.5,297.3h3.7c2.4,0,3.9,1.1,3.9,3.4c0,1.8-1.1,3.4-3.6,3.4h-1.3v3.9h-2.7V297.3z
		 M258,302.1c0.8,0,1.4-0.5,1.4-1.5c0-1-0.5-1.5-1.6-1.5h-0.7v3L258,302.1L258,302.1z"/>
	<path id="XMLID_17_" class="st0" d="M274.7,299.7c-0.4-0.2-1.1-0.6-2.3-0.6c-1.8,0-3,1.3-3,3.5c0,2.1,1.3,3.5,3,3.5
		c1.3,0,2.1-0.5,2.4-0.6l0.1,2.2c-0.5,0.1-1.4,0.4-2.9,0.4c-3.1,0-5.3-2.2-5.3-5.5c0-3.9,2.8-5.4,5.2-5.4c1.7,0,2.6,0.4,3,0.5
		L274.7,299.7z"/>
	<path id="XMLID_21_" class="st0" d="M279.7,297.3h4.3c2.4,0,3.2,1.5,3.2,2.6c0,1.7-1.4,2.3-2.1,2.4v0c1.3,0.2,2.3,0.9,2.3,2.6
		c0,2.7-2.9,2.9-3.6,2.9h-4.1L279.7,297.3z M282.3,301.6h0.7c1.5,0,1.6-1.1,1.6-1.3c0-0.4-0.2-1.3-1.5-1.3h-0.7L282.3,301.6
		L282.3,301.6z M282.3,306h0.8c0.4,0,1.7,0,1.7-1.4c0-0.9-0.6-1.4-1.4-1.4h-1V306z"/>
	<path id="XMLID_22_" class="st0" d="M306.2,299.4c-0.6-0.3-1.5-0.5-2.3-0.5c-0.9,0-1.5,0.4-1.5,1.1c0,1.9,4.5,1,4.5,4.8
		c0,2-1.7,3.2-4,3.2c-1.4,0-2.6-0.3-3.1-0.4l0.1-2.1c0.8,0.3,1.5,0.6,2.5,0.6c0.9,0,1.7-0.4,1.7-1.2c0-2-4.5-1-4.5-4.8
		c0-0.3,0.1-3,4-3c1.1,0,1.7,0.2,2.7,0.4L306.2,299.4z"/>
	<path id="XMLID_25_" class="st0" d="M316.6,297.1c3.3,0,4.9,2.4,4.9,5.5c0,3.1-1.6,5.5-4.9,5.5c-3.3,0-4.9-2.4-4.9-5.5
		C311.7,299.4,313.3,297.1,316.6,297.1 M316.6,306.2c1.6,0,2.1-1.7,2.1-3.7c0-2-0.6-3.7-2.1-3.7c-1.6,0-2.1,1.6-2.1,3.7
		C314.5,304.6,315,306.2,316.6,306.2"/>
	<polygon id="XMLID_26_" class="st0" points="326.6,297.3 329.3,297.3 329.3,305.9 333.1,305.9 333.1,307.8 326.6,307.8 	"/>
	<path id="XMLID_27_" class="st0" d="M337.7,297.3h2.7v7.1c0,1.1,0.4,1.7,1.5,1.7c1.1,0,1.5-0.6,1.5-1.7v-7.1h2.7v6.7
		c0,2.6-1.6,4-4.2,4c-2.6,0-4.2-1.4-4.2-4L337.7,297.3L337.7,297.3z"/>
	<polygon id="XMLID_28_" class="st0" points="353.1,299.2 350.6,299.2 350.6,297.3 358.3,297.3 358.3,299.2 355.8,299.2 
		355.8,307.8 353.1,307.8 	"/>
	<rect id="XMLID_29_" x="362.9" y="297.3" class="st0" width="2.7" height="10.6"/>
	<path id="XMLID_32_" class="st0" d="M375.6,297.1c3.3,0,4.9,2.4,4.9,5.5c0,3.1-1.6,5.5-4.9,5.5c-3.3,0-4.9-2.4-4.9-5.5
		S372.3,297.1,375.6,297.1 M375.6,306.2c1.6,0,2.1-1.7,2.1-3.7c0-2-0.6-3.7-2.1-3.7c-1.6,0-2.1,1.6-2.1,3.7
		C373.5,304.6,374.1,306.2,375.6,306.2"/>
	<polygon id="XMLID_33_" class="st0" points="385.6,297.3 388.7,297.3 392.1,304.6 392.1,304.6 392.1,297.3 394.5,297.3 
		394.5,307.8 391.3,307.8 388,300.2 387.9,300.2 387.9,307.8 385.6,307.8 	"/>
	<path id="XMLID_34_" class="st0" d="M406.1,299.4c-0.6-0.3-1.5-0.5-2.3-0.5c-0.9,0-1.5,0.4-1.5,1.1c0,1.9,4.5,1,4.5,4.8
		c0,2-1.7,3.2-4,3.2c-1.4,0-2.6-0.3-3.1-0.4l0.2-2.1c0.8,0.3,1.5,0.6,2.5,0.6c0.9,0,1.7-0.4,1.7-1.2c0-2-4.5-1-4.5-4.8
		c0-0.3,0.1-3,4-3c1,0,1.7,0.2,2.7,0.4L406.1,299.4z"/>
	<path id="XMLID_37_" class="st1" d="M103.3,192.1c24.5,0,36,20,35.8,42c-0.2,24.9-12.3,42-35.8,42c-23.4,0-35.5-17.1-35.8-42
		C67.3,212.2,78.8,192.1,103.3,192.1z M75.5,234.2c0,17.2,8.6,35.1,27.7,35.1c19.1,0,27.7-17.8,27.7-35.1c0-17.2-8.6-35.1-27.7-35.1
		C84.2,199.1,75.5,217,75.5,234.2z"/>
	<path id="XMLID_38_" class="st1" d="M155.7,228.7c0-6.5,0-9-0.5-13.3h7.3v11.4h0.2c2.7-6.6,7.7-12.8,15.3-12.8
		c1.7,0,3.8,0.3,5.1,0.7v7.7c-1.5-0.5-3.5-0.7-5.4-0.7c-11.6,0-14.8,13-14.8,23.8v29.4h-7.3L155.7,228.7L155.7,228.7z"/>
	<path id="XMLID_39_" class="st1" d="M252.2,202.6c-5.1-2.7-12.5-3.5-18.2-3.5c-21.1,0-33,14.9-33,35.1c0,20.5,11.5,35.1,33,35.1
		c5.4,0,13.5-0.7,18.2-3.5l0.5,7c-4.4,2.7-13.5,3.5-18.6,3.5c-25.6,0-41-16.9-41-42c0-24.7,15.8-42,41-42c4.8,0,14.4,0.8,18.6,3
		L252.2,202.6z"/>
	<path id="XMLID_42_" class="st1" d="M298.9,193.5h9.1l32.3,81.3h-8.4l-8.7-21.8h-41l-8.7,21.8h-7.8L298.9,193.5z M302.8,201.2
		l-17.7,44.8h35.3L302.8,201.2z"/>
	<path id="XMLID_45_" class="st1" d="M353.4,193.5h20.1c29.1,0,40.7,16.8,40.7,40.5c0,29.5-19.7,40.8-46.6,40.8h-14.2V193.5z
		 M361.5,267.9h6.6c23.1,0,38.1-9.3,38.1-34.2c0-24.8-14.8-33.1-33-33.1h-11.8V267.9z"/>
	<path id="XMLID_48_" d="M419.5,193.2h-2.2V192h5.7v1.2h-2.2v6h-1.3L419.5,193.2L419.5,193.2z M424.7,192h2l1.9,4.8l1.8-4.8h2v7.2
		h-1.3v-5.5h0l-2,5.5h-1.1l-2-5.5h0v5.5h-1.3V192z"/>
</g>
</svg>
